<?xml version="1.0" standalone="no"?>
<!DOCTYPE svg PUBLIC "-//W3C//DTD SVG 20010904//EN"
 "http://www.w3.org/TR/2001/REC-SVG-20010904/DTD/svg10.dtd">
<svg version="1.0" xmlns="http://www.w3.org/2000/svg"
 width="1024.000000pt" height="1024.000000pt" viewBox="0 0 1024.000000 1024.000000"
 preserveAspectRatio="xMidYMid meet">

<g transform="translate(0.000000,1024.000000) scale(0.100000,-0.100000)"
fill="#000000" stroke="none">
<path d="M4830 8429 c-505 -57 -982 -220 -1398 -478 -171 -106 -491 -352 -564
-433 -11 -13 -24 -17 -37 -13 -35 11 -97 -13 -130 -50 -26 -30 -31 -44 -31
-86 0 -45 -4 -55 -43 -97 -179 -198 -342 -422 -443 -610 -60 -112 -75 -93 -50
66 38 240 31 463 -20 639 -46 159 -164 383 -203 383 -21 0 -45 -50 -80 -162
-100 -328 -51 -645 137 -885 31 -40 74 -94 94 -120 21 -27 38 -54 38 -60 0 -7
-20 -57 -44 -111 -24 -54 -49 -115 -55 -135 -7 -20 -16 -37 -21 -37 -4 0 -22
53 -39 118 -53 193 -92 300 -159 432 -111 219 -127 216 -126 -28 0 -153 2
-175 28 -257 42 -140 112 -258 214 -367 26 -27 33 -43 29 -60 -14 -62 -86
-331 -90 -334 -2 -2 -23 53 -46 124 -91 271 -154 395 -291 581 -66 89 -95 121
-111 121 -21 0 -22 -1 -16 -157 11 -346 113 -539 360 -686 l88 -52 -5 -45 c-3
-25 -11 -83 -17 -130 -7 -47 -12 -189 -13 -317 l-1 -232 -25 32 c-85 111 -207
213 -311 262 -83 38 -83 38 -76 -57 16 -213 119 -424 300 -615 40 -41 90 -88
113 -104 37 -25 42 -34 48 -80 4 -29 23 -113 42 -187 19 -75 32 -137 30 -139
-2 -2 -25 20 -50 49 -45 51 -63 76 -119 166 -28 43 -53 54 -63 27 -14 -34 140
-246 222 -307 34 -26 43 -42 80 -148 22 -66 38 -120 34 -120 -14 0 -71 50
-156 136 -96 99 -183 161 -272 194 -76 29 -83 17 -42 -66 64 -131 201 -234
395 -299 44 -15 88 -31 98 -36 9 -6 37 -49 62 -97 24 -48 63 -121 86 -162 l42
-75 -59 55 c-32 31 -75 68 -95 83 -43 32 -82 36 -77 9 3 -18 119 -120 241
-211 54 -41 69 -61 47 -61 -24 0 -151 55 -239 103 -117 64 -184 93 -233 102
-33 6 -38 5 -38 -12 0 -31 68 -110 130 -151 70 -47 137 -66 300 -87 69 -9 130
-21 136 -28 5 -7 55 -68 110 -137 269 -338 736 -723 1092 -900 50 -25 91 -48
91 -52 1 -5 -59 -8 -131 -8 -73 0 -162 -3 -198 -6 l-65 -6 -68 91 c-128 171
-489 480 -600 513 -30 9 -52 28 -93 79 -91 114 -200 193 -344 249 -78 29 -245
58 -275 46 -21 -8 -7 -35 54 -101 150 -163 319 -255 516 -280 59 -8 203 -78
293 -142 34 -24 62 -46 62 -47 0 -2 -28 5 -62 16 -41 13 -96 20 -158 21 -89 2
-95 1 -95 -18 0 -18 9 -21 80 -28 201 -20 314 -69 446 -195 84 -79 167 -187
155 -199 -3 -3 -37 -9 -76 -12 l-71 -7 -44 62 c-51 71 -98 114 -126 114 -28 0
-23 -21 14 -66 36 -43 77 -99 77 -107 0 -2 -64 -10 -142 -16 -260 -23 -611
-67 -695 -88 -27 -6 -30 -30 -5 -37 120 -35 1357 -111 1922 -119 l186 -2 104
61 c58 33 170 101 250 151 524 325 852 452 1315 508 188 22 491 31 538 16 20
-7 37 -16 37 -19 0 -4 -46 -8 -103 -9 -103 -2 -177 -18 -185 -40 -2 -8 5 -13
19 -13 44 0 5 -19 -91 -44 -52 -13 -147 -40 -210 -59 -63 -19 -131 -38 -150
-41 -110 -22 -480 -145 -699 -233 -232 -93 -411 -176 -576 -266 -71 -39 -146
-78 -165 -88 -54 -26 -181 -59 -323 -84 -128 -23 -161 -35 -141 -55 13 -13
124 2 274 35 426 94 620 151 1060 312 357 131 481 168 705 214 108 21 236 36
241 27 3 -4 -3 -8 -13 -8 -34 0 -488 -119 -591 -155 -110 -38 -243 -94 -469
-199 -148 -68 -343 -132 -504 -165 -169 -35 -189 -42 -189 -62 0 -26 29 -25
237 6 308 46 505 93 973 235 314 94 512 151 516 147 3 -2 -46 -22 -108 -45
-62 -22 -185 -68 -273 -102 -311 -120 -402 -152 -568 -201 -93 -27 -174 -49
-181 -49 -7 0 -21 -6 -32 -14 -17 -13 -17 -16 -4 -29 12 -12 27 -13 79 -6 92
13 312 70 493 128 371 118 460 130 1208 161 548 23 1014 53 1339 86 155 16
201 26 201 43 0 19 -277 62 -560 86 -102 9 -212 19 -244 23 l-59 7 60 75 c45
55 58 78 51 88 -6 6 -14 12 -19 12 -17 0 -89 -73 -121 -122 l-32 -49 -83 2
c-46 1 -83 5 -83 8 0 19 85 127 154 196 119 118 230 171 414 199 95 14 120 25
107 47 -11 17 -165 5 -240 -20 -33 -11 -61 -19 -62 -17 -2 1 32 28 74 58 119
85 206 125 303 138 141 19 264 74 383 170 75 60 177 176 177 200 0 18 -120 7
-225 -20 -158 -40 -300 -132 -405 -264 -37 -45 -62 -67 -89 -76 -59 -19 -178
-105 -330 -238 -144 -127 -236 -225 -299 -320 l-36 -54 -60 6 c-32 3 -124 6
-202 6 -79 0 -144 4 -144 8 0 4 15 13 33 20 103 38 392 219 557 351 275 219
484 429 659 663 23 31 50 59 59 63 9 3 78 15 153 25 160 22 233 47 301 104 61
50 116 122 102 136 -17 17 -98 -10 -264 -90 -173 -84 -266 -119 -252 -95 7 12
247 205 285 229 23 15 22 46 -2 46 -18 0 -132 -77 -145 -99 -4 -5 -21 -20 -39
-33 l-32 -23 23 35 c12 19 50 92 84 162 34 70 69 129 77 132 82 26 242 91 286
116 89 51 160 123 200 202 35 71 42 98 26 98 -5 0 -28 -7 -52 -15 -89 -32
-184 -99 -306 -217 -66 -65 -126 -118 -132 -118 -7 0 -5 13 5 38 9 20 27 71
41 113 22 72 29 83 116 170 137 139 205 251 160 266 -6 2 -30 -23 -53 -57 -48
-71 -160 -203 -166 -197 -3 2 7 44 21 93 14 49 33 131 42 182 l17 92 84 73
c173 150 297 341 347 541 14 55 25 127 25 164 l0 65 -32 -7 c-47 -9 -157 -78
-223 -138 -32 -29 -79 -84 -106 -122 l-49 -69 0 194 c0 416 -75 787 -238 1174
l-54 130 23 15 c37 24 285 225 391 317 57 49 100 94 104 109 15 59 -25 137
-87 169 -55 29 -93 16 -199 -70 -36 -28 -135 -106 -221 -172 l-156 -120 -23
46 c-47 98 -138 239 -230 359 l-97 125 31 27 c17 15 65 52 106 82 113 83 308
243 372 304 72 70 79 97 43 170 -46 94 -135 132 -203 88 -201 -130 -429 -318
-506 -417 l-25 -31 -78 74 c-90 85 -109 109 -97 119 15 14 413 322 574 445
216 165 240 190 240 242 0 48 -28 90 -74 109 -48 20 -48 20 -351 -218 -44 -35
-145 -112 -225 -172 -80 -60 -187 -143 -239 -185 -51 -41 -99 -79 -105 -84 -8
-5 -67 29 -168 97 -458 306 -877 468 -1418 548 -156 23 -598 34 -740 18z
m3131 -118 c-8 -15 -6 -25 11 -47 12 -16 27 -32 33 -36 6 -5 6 -8 -2 -8 -12 0
-82 69 -83 81 0 5 34 25 48 28 1 1 -2 -8 -7 -18z m-32 -122 c6 -18 6 -31 0
-34 -5 -4 -9 -2 -9 4 0 6 -16 25 -35 42 -27 25 -32 35 -23 46 9 11 15 10 34
-8 13 -12 27 -34 33 -50z m-2532 20 c45 -7 80 -15 78 -19 -3 -4 3 -10 13 -13
9 -2 25 -8 35 -12 10 -4 17 -3 17 3 0 6 -10 13 -22 15 -18 3 -16 5 7 5 38 2
171 -21 274 -48 44 -11 92 -20 108 -20 15 0 40 -6 55 -14 15 -8 40 -17 57 -21
19 -4 28 -11 25 -17 -4 -7 -2 -8 5 -4 19 12 261 -77 261 -96 0 -5 4 -7 9 -3
13 7 82 -26 75 -37 -3 -4 1 -5 9 -2 16 6 223 -100 313 -160 34 -23 96 -63 138
-89 91 -57 93 -49 -39 -147 -50 -37 -97 -73 -105 -81 -12 -12 -96 -84 -222
-191 -11 -10 -25 -15 -29 -12 -5 3 -9 -2 -9 -10 0 -19 -49 -58 -63 -49 -5 3
-7 1 -3 -5 3 -6 -21 -31 -56 -57 -34 -26 -68 -55 -76 -66 -7 -10 -18 -19 -24
-19 -10 0 -21 -9 -148 -120 -35 -30 -72 -61 -84 -69 -12 -8 -39 -30 -60 -48
-22 -18 -44 -33 -48 -33 -5 0 -20 -13 -33 -29 -20 -23 -36 -29 -81 -35 -97
-11 -131 -40 -192 -161 -17 -33 -51 -80 -76 -105 -25 -24 -46 -50 -46 -57 0
-15 2 -15 152 -3 195 16 282 57 303 141 7 27 49 54 66 43 5 -3 8 -2 7 3 -4 12
52 72 92 99 19 13 67 48 105 79 39 31 104 81 145 112 41 31 91 70 111 87 20
17 67 53 105 80 38 27 110 82 159 121 143 113 378 291 402 303 27 15 43 15 23
1 -12 -9 -11 -10 7 -6 16 3 39 -11 90 -56 86 -77 93 -84 93 -95 0 -5 -37 -38
-82 -74 -46 -36 -92 -75 -102 -87 -11 -11 -24 -21 -30 -21 -6 0 -17 -9 -24
-20 -7 -11 -17 -20 -22 -20 -6 0 -27 -16 -47 -36 -49 -46 -77 -60 -136 -68
-72 -9 -125 -36 -193 -99 -85 -78 -118 -152 -117 -262 0 -119 30 -189 114
-274 90 -89 260 -126 378 -81 86 32 167 101 210 180 35 62 36 69 36 165 0 91
-3 105 -30 159 -16 32 -50 76 -74 97 -26 23 -37 39 -28 39 25 0 157 73 247
136 l83 58 39 -45 c92 -105 326 -487 308 -502 -117 -88 -211 -173 -301 -272
-62 -68 -115 -123 -118 -120 -4 2 -13 -1 -21 -7 -12 -8 -11 -9 4 -4 12 4 -2
-17 -35 -51 -30 -32 -91 -98 -137 -147 l-83 -88 -73 71 c-41 39 -79 71 -86 71
-6 0 -39 -21 -73 -47 -33 -27 -102 -77 -153 -113 -50 -36 -169 -121 -264 -190
-95 -69 -212 -153 -260 -187 l-87 -61 -36 21 c-51 30 -187 118 -429 276 -114
75 -249 163 -300 196 -51 33 -123 81 -159 107 -37 26 -75 48 -85 48 -11 0 -86
-55 -169 -122 -150 -121 -416 -331 -479 -378 -19 -14 -118 -88 -222 -164
l-187 -139 -31 35 c-58 66 -261 301 -326 378 -170 201 -410 460 -428 460 -6 0
-55 -48 -109 -107 -226 -247 -599 -625 -665 -674 l-28 -20 0 34 c0 46 -23 119
-49 156 -18 25 -30 31 -57 31 -19 0 -48 -7 -63 -15 -43 -22 -117 -110 -137
-162 -15 -37 -19 -42 -25 -27 -11 27 -10 209 1 344 18 225 29 239 286 369 284
143 388 221 454 338 42 73 34 81 -67 64 -107 -17 -245 -65 -325 -112 -90 -52
-180 -153 -246 -276 -51 -92 -53 -96 -47 -54 14 102 61 202 178 376 37 57 44
62 125 93 90 36 251 125 317 175 147 114 239 224 298 359 30 68 67 209 67 256
0 30 -2 33 -22 27 -33 -10 -141 -70 -236 -132 -105 -68 -266 -228 -357 -356
-112 -158 -175 -251 -175 -263 0 -5 -10 -21 -23 -34 -12 -14 -21 -26 -19 -28
3 -3 -68 -124 -78 -132 -4 -3 -12 -14 -18 -25 -11 -19 -12 -18 -8 5 5 33 37
100 48 100 5 0 8 6 7 13 -6 36 138 276 156 259 5 -4 5 1 2 11 -4 10 -3 16 2
12 5 -3 11 5 13 17 2 13 9 22 17 20 9 -2 11 3 7 14 -5 14 -4 15 9 4 14 -11 17
-10 22 8 3 12 9 19 14 17 4 -3 6 6 3 21 -3 16 -1 23 6 19 6 -3 7 0 4 9 -3 9
-1 16 4 16 6 0 14 9 17 21 24 75 406 487 569 613 282 219 593 411 753 465 53
18 58 18 70 3 12 -15 12 -15 6 3 -3 11 -3 17 2 13 4 -4 25 8 46 27 22 19 54
37 76 41 21 4 69 18 107 31 39 13 78 21 87 18 9 -3 43 8 76 24 42 23 91 36
181 50 67 11 130 18 140 15 14 -5 15 -4 2 5 -11 8 -1 11 45 11 33 1 78 5 100
9 61 13 430 12 522 0z m2455 -66 c10 -9 18 -20 18 -24 0 -4 -30 -31 -67 -60
-38 -29 -106 -83 -153 -120 -155 -122 -372 -288 -635 -485 -143 -107 -276
-207 -295 -222 -46 -37 -384 -293 -482 -366 -55 -40 -78 -52 -78 -41 0 19 85
106 151 156 49 36 240 185 494 384 268 210 668 519 887 686 64 49 119 93 123
99 9 14 15 13 37 -7z m-1468 -12 c9 -14 -4 -41 -20 -41 -8 0 -14 10 -14 25 0
25 23 35 34 16z m204 -165 c3 -13 -1 -17 -14 -14 -11 2 -20 11 -22 22 -3 13 1
17 14 14 11 -2 20 -11 22 -22z m142 -86 c0 -5 -4 -10 -10 -10 -5 0 -10 5 -10
10 0 6 5 10 10 10 6 0 10 -4 10 -10z m-3300 -51 c9 -16 8 -25 -6 -40 -9 -10
-22 -19 -29 -19 -16 0 -39 45 -32 64 9 23 54 20 67 -5z m4705 -9 c16 -16 24
-30 17 -30 -6 0 -9 -7 -6 -15 8 -21 -6 -19 -22 3 -17 22 -49 4 -48 -28 1 -19
-3 -18 -35 15 l-36 36 30 25 c40 32 65 30 100 -6z m-127 -99 c14 -20 14 -22
-7 -28 -13 -3 -20 -11 -17 -18 5 -13 -73 -92 -128 -130 -16 -11 -48 -39 -70
-62 -35 -36 -44 -40 -61 -30 -18 9 -19 9 -6 -6 12 -15 11 -17 -9 -17 -13 0
-50 -24 -89 -59 -80 -71 -376 -308 -467 -373 -36 -27 -75 -48 -87 -48 -22 0
-55 16 -47 22 18 13 150 124 293 246 199 171 336 275 353 268 6 -2 22 7 35 21
13 14 74 67 134 118 61 50 116 99 124 109 17 20 29 17 49 -13z m-123 -1 c-5
-9 -120 -111 -186 -165 -13 -11 -37 -31 -54 -45 -19 -16 -25 -18 -15 -6 14 18
251 225 258 226 2 0 0 -4 -3 -10z m14 -237 c-13 -10 -34 -27 -46 -39 -12 -12
-24 -20 -27 -17 -3 3 16 23 42 43 26 21 49 36 51 34 3 -3 -6 -12 -20 -21z
m-5058 -36 c28 -19 35 -30 37 -64 3 -34 -1 -44 -24 -62 -34 -26 -92 -29 -100
-3 -3 9 -10 26 -16 37 -8 16 -8 18 3 8 29 -28 35 -11 7 17 -30 30 -30 31 -12
52 17 18 47 35 65 37 3 1 21 -9 40 -22z m-124 -99 c-3 -8 -6 -5 -6 6 -1 11 2
17 5 13 3 -3 4 -12 1 -19z m-863 -47 c9 -14 118 -76 179 -100 59 -24 78 -46
30 -35 -60 14 -218 106 -227 131 -6 14 10 18 18 4z m4735 -74 c-15 -12 -37
-31 -50 -41 -13 -10 -33 -26 -44 -35 l-20 -16 20 24 c19 23 105 91 115 90 3 0
-7 -10 -21 -22z m-4544 -158 c33 -12 55 -24 49 -26 -28 -9 -254 99 -254 122 0
2 33 -13 73 -35 39 -21 99 -49 132 -61z m1055 5 c0 -49 -4 -84 -10 -84 -6 0
-10 37 -10 91 0 57 4 88 10 84 6 -3 10 -44 10 -91z m-56 -123 c3 -22 2 -31 -5
-24 -5 5 -11 54 -14 109 -4 99 -4 99 5 24 5 -41 11 -90 14 -109z m-59 43 c23
-123 16 -152 -9 -34 -20 92 -23 130 -10 118 2 -3 10 -40 19 -84z m-56 -1 c14
-69 24 -153 18 -153 -3 0 -12 35 -21 78 -9 42 -19 87 -22 100 -2 12 0 22 5 22
5 0 14 -21 20 -47z m5650 -1 c6 -11 12 -32 15 -47 l5 -29 -36 36 c-34 34 -37
58 -8 58 8 0 19 -8 24 -18z m-5710 -115 c18 -50 36 -98 38 -104 3 -7 1 -13 -4
-13 -10 0 -83 175 -83 198 0 33 18 3 49 -81z m5641 40 c0 -5 -4 -5 -10 -2 -6
3 -7 -1 -4 -9 9 -22 -18 -20 -47 3 l-24 19 25 20 25 21 17 -22 c10 -12 18 -26
18 -30z m-2280 20 c0 -2 -11 -13 -25 -25 -27 -24 -35 -13 -9 12 14 14 34 22
34 13z m813 -48 c38 -17 34 -29 -11 -29 -58 0 -151 -51 -211 -115 -28 -31 -51
-64 -51 -75 0 -11 -4 -20 -9 -20 -5 0 -13 -29 -16 -65 -6 -54 -4 -71 14 -107
26 -54 75 -102 120 -117 40 -13 185 -15 177 -2 -3 5 1 14 9 21 17 14 20 36 5
45 -5 3 -23 -1 -40 -10 -65 -34 -176 10 -212 83 -19 41 -20 50 -9 91 17 65 27
69 40 17 13 -53 68 -115 102 -117 39 -2 51 1 107 27 80 38 117 15 102 -64 -11
-65 -71 -109 -177 -131 -66 -14 -116 -8 -192 26 -155 69 -208 281 -107 430 31
46 106 102 158 119 49 16 159 12 201 -7z m-4609 2 c9 -14 -4 -41 -19 -41 -15
0 -24 19 -17 38 5 14 28 16 36 3z m5988 -43 c32 -36 35 -44 21 -49 -17 -5
-103 44 -103 60 0 10 22 31 34 31 6 0 27 -19 48 -42z m-2322 -49 c0 -5 -5 -9
-12 -9 -6 0 -26 -11 -44 -25 -18 -14 -36 -25 -41 -25 -4 -1 -24 -14 -43 -30
-19 -17 -40 -30 -47 -30 -6 0 -16 -8 -22 -17 -9 -17 -10 -17 -16 -1 -8 19 5
33 102 111 40 31 75 62 79 69 5 8 13 4 26 -11 10 -13 18 -27 18 -32z m2231 -2
l26 -32 -28 -27 c-16 -14 -29 -23 -29 -21 0 3 -7 0 -15 -7 -8 -7 -12 -16 -9
-21 3 -5 -2 -9 -10 -9 -8 0 -27 -15 -41 -32 -15 -18 -24 -27 -20 -20 6 12 3
12 -16 1 -13 -7 -28 -12 -32 -11 -5 1 -6 -2 -2 -8 3 -5 -1 -10 -10 -10 -9 0
-14 -4 -11 -9 4 -5 -7 -15 -24 -23 -16 -7 -30 -17 -30 -21 0 -5 -4 -6 -9 -3
-5 4 -11 3 -13 -1 -1 -5 -23 -24 -48 -44 -25 -20 -56 -46 -69 -58 -18 -16 -28
-18 -42 -10 -16 8 -39 39 -39 52 0 6 158 134 265 213 50 37 108 82 130 101 22
18 42 33 45 33 3 0 17 -15 31 -33z m-1153 -41 c49 -44 46 -53 -14 -48 -31 3
-67 -1 -84 -8 -43 -18 -100 -99 -100 -144 -1 -20 -2 -19 -25 7 -60 68 -6 176
105 211 53 17 86 12 118 -18z m725 21 c8 -20 -9 -41 -27 -34 -23 9 -21 47 3
47 10 0 21 -6 24 -13z m512 -66 c6 -10 -192 -171 -210 -171 -10 1 4 14 95 90
30 25 64 55 75 66 23 25 31 28 40 15z m-2437 -15 c-7 -8 -15 -12 -17 -11 -5 6
10 25 20 25 5 0 4 -6 -3 -14z m1242 -61 c27 -25 25 -40 -2 -20 -37 25 -95 37
-120 25 -23 -11 -23 -11 -3 5 25 21 98 15 125 -10z m-1392 -5 c2 -10 -10 -20
-33 -29 -19 -7 -35 -16 -35 -21 0 -5 -21 -21 -47 -36 -27 -15 -56 -34 -65 -42
-24 -20 -23 -15 11 62 25 55 35 67 63 75 48 14 102 9 106 -9z m1342 -30 c13
-9 13 -10 0 -9 -8 1 -26 5 -40 9 l-25 8 25 1 c14 0 32 -4 40 -9z m1020 -70 c0
-5 -5 -10 -11 -10 -5 0 -7 5 -4 10 3 6 8 10 11 10 2 0 4 -4 4 -10z m-335 -126
c15 -25 25 -47 23 -49 -7 -7 -84 73 -80 83 8 24 31 10 57 -34z m-5675 -9 c0
-5 -5 -3 -10 5 -5 8 -10 20 -10 25 0 6 5 3 10 -5 5 -8 10 -19 10 -25z m5618
-40 c18 -26 27 -45 20 -45 -21 1 -91 68 -83 79 12 20 30 10 63 -34z m-5589
-97 c1 -60 -20 -187 -38 -228 -11 -24 -11 -24 -6 5 31 188 34 218 25 272 -13
76 -11 86 5 43 7 -19 14 -60 14 -92z m492 -25 c-8 -14 -10 -8 -11 29 0 67 14
96 18 36 2 -26 -2 -56 -7 -65z m5028 70 c17 -21 27 -39 21 -41 -6 -2 -8 -7 -5
-12 3 -5 -11 -23 -31 -42 -20 -18 -49 -46 -65 -61 -16 -15 -33 -25 -38 -22 -5
3 -13 0 -17 -6 -5 -8 -3 -9 6 -4 9 5 11 4 6 -3 -4 -7 -11 -12 -16 -12 -5 0
-30 -14 -55 -31 -25 -17 -49 -29 -52 -25 -7 6 -39 -19 -133 -106 -74 -69 -93
-62 -28 11 95 107 363 391 370 391 3 0 20 -17 37 -37z m284 -45 c73 -176 105
-258 111 -280 3 -14 9 -34 13 -45 4 -10 -35 20 -86 67 -149 137 -128 130 -208
64 -37 -32 -95 -83 -128 -114 -33 -32 -80 -75 -105 -96 -59 -51 -134 -120
-183 -167 l-39 -37 -60 50 c-33 27 -64 50 -69 50 -26 0 -2 23 59 56 37 21 144
87 237 148 161 104 223 148 375 265 71 55 75 57 83 39z m-6363 -226 c13 -13
13 -14 -5 -8 -11 4 -33 10 -50 13 -39 8 -105 41 -105 53 0 12 140 -38 160 -58z
m1783 -147 c88 -95 271 -307 367 -425 43 -53 279 -330 290 -340 3 -3 27 -32
55 -65 27 -33 105 -122 172 -197 68 -75 123 -140 123 -143 0 -4 -19 9 -42 28
-49 38 -284 190 -310 200 -29 10 -21 -16 15 -50 17 -17 145 -118 282 -224 225
-173 280 -223 550 -488 165 -163 304 -301 308 -308 18 -29 -24 -10 -127 58
-60 38 -153 101 -206 140 -93 66 -120 80 -120 60 0 -12 204 -207 273 -261 45
-35 54 -46 38 -48 -35 -6 -234 110 -496 288 -165 113 -426 280 -436 280 -17 0
15 -48 144 -219 112 -149 137 -193 79 -139 -15 14 -103 78 -197 143 -93 65
-214 153 -268 196 -97 77 -287 251 -287 263 0 15 46 4 74 -17 154 -117 266
-196 266 -187 0 16 -184 202 -374 378 -100 92 -217 202 -261 245 l-80 77 83
-45 c167 -91 234 -141 477 -350 144 -124 402 -311 503 -364 48 -25 4 27 -86
101 -84 70 -350 331 -522 512 -95 101 -150 143 -407 314 -100 67 -184 126
-188 132 -4 6 7 29 24 50 27 34 30 44 25 83 l-6 43 217 -213 c119 -118 219
-212 222 -209 8 8 -136 220 -270 398 -69 92 -116 162 -111 169 4 7 24 9 55 6
27 -3 49 -4 49 -2 0 3 -21 32 -46 64 -25 33 -44 63 -42 68 2 4 18 32 37 60 24
37 38 50 47 45 8 -4 56 -53 107 -107z m4457 96 c0 -11 22 -49 50 -85 l49 -64
-37 -28 c-20 -16 -58 -48 -84 -72 l-48 -44 31 -37 30 -36 -63 -60 c-35 -33
-131 -113 -213 -177 -188 -146 -213 -167 -199 -168 6 0 126 58 267 129 164 83
253 123 247 111 -11 -20 -292 -291 -356 -342 -94 -75 -282 -233 -319 -268 -27
-25 -82 -55 -165 -90 -219 -92 -703 -332 -917 -455 -35 -20 -63 -34 -63 -32 0
3 89 78 198 168 298 248 966 921 1165 1175 59 75 397 394 418 394 5 0 9 -9 9
-19z m-5733 -23 c-3 -8 -6 -5 -6 6 -1 11 2 17 5 13 3 -3 4 -12 1 -19z m-467
-18 c11 -7 -3 -10 -45 -10 -42 0 -56 3 -45 10 8 5 29 10 45 10 17 0 37 -5 45
-10z m4020 -360 c302 -195 400 -261 400 -269 0 -4 -15 -21 -33 -39 l-32 -31
-98 50 c-54 28 -101 48 -104 46 -3 -3 34 -31 82 -62 65 -42 85 -59 76 -68 -8
-8 -28 -3 -78 21 -131 61 -141 53 -63 -51 90 -119 62 -131 -107 -42 -69 36
-128 65 -131 65 -3 0 4 -10 15 -22 29 -33 143 -203 143 -214 0 -5 -13 -25 -30
-44 l-29 -35 -58 60 c-32 33 -82 87 -111 119 l-52 60 -22 -22 c-27 -26 -24
-32 70 -157 37 -48 74 -97 81 -108 13 -17 13 -21 -2 -32 -15 -10 -28 -7 -85
23 -37 19 -76 42 -86 51 -26 22 -123 173 -147 227 -12 30 -33 54 -66 76 -26
18 -75 59 -109 91 -61 57 -77 66 -89 47 -11 -17 51 -85 136 -149 45 -34 96
-81 114 -104 29 -39 155 -241 155 -250 0 -2 -78 47 -172 109 -141 93 -189 131
-260 206 -68 71 -88 99 -88 121 0 15 18 118 40 229 23 110 39 203 36 205 -5 5
-28 -69 -67 -212 -12 -44 -44 -138 -72 -209 -39 -102 -47 -133 -38 -145 31
-44 40 -74 51 -165 6 -54 9 -100 7 -103 -25 -25 -207 219 -207 278 0 12 25 71
55 130 31 60 52 109 48 109 -4 0 -19 -19 -32 -43 -26 -44 -120 -177 -126 -177
-2 0 -1 16 2 35 13 80 -26 80 -68 0 -13 -25 -32 -48 -42 -51 -10 -3 -61 -35
-114 -71 l-96 -66 -23 29 c-18 22 -21 31 -11 43 7 8 102 92 212 186 267 230
301 262 292 271 -11 11 -17 7 -314 -212 -144 -107 -267 -194 -273 -194 -24 0
-5 28 53 79 277 241 667 563 876 723 l34 26 191 -127 c105 -70 270 -179 366
-241z m1690 366 c0 -2 -12 -11 -27 -20 l-28 -17 24 20 c23 21 31 25 31 17z
m-415 -93 c-3 -15 -27 -49 -52 -76 -45 -48 -45 -49 -38 -102 6 -51 5 -55 -24
-81 l-31 -27 46 -86 c53 -100 97 -201 90 -208 -6 -6 -37 14 -179 115 -65 46
-121 82 -123 79 -7 -7 41 -206 61 -253 22 -53 20 -53 -33 2 -26 27 -59 59 -73
72 l-27 23 -49 -53 c-27 -29 -100 -107 -162 -173 -110 -117 -141 -158 -128
-171 4 -4 59 29 124 72 65 44 121 81 126 82 4 2 -18 -33 -50 -79 -48 -69 -382
-431 -440 -478 -10 -8 -35 -30 -57 -50 l-38 -36 38 53 c162 223 216 303 230
340 9 23 14 45 11 48 -10 10 -360 -269 -389 -311 -4 -5 -8 0 -8 12 0 48 3 50
-217 -137 -48 -41 -124 -106 -169 -145 -140 -121 -244 -206 -262 -212 -29 -11
12 30 153 152 160 139 270 250 257 259 -6 3 -32 -10 -59 -30 -51 -39 -291
-237 -353 -291 -38 -34 -60 -42 -60 -22 0 6 157 172 348 368 192 196 370 381
398 411 27 30 94 102 148 160 55 58 133 144 173 192 50 58 105 108 171 155 53
37 218 155 366 261 149 105 275 192 279 192 5 0 6 -12 2 -27z m-5261 1 c9 -8
16 -17 16 -20 0 -6 -49 7 -85 22 l-30 13 42 1 c25 0 48 -6 57 -16z m388 -301
l-5 -281 -36 12 c-27 10 -37 19 -39 38 -7 58 66 535 79 520 4 -4 4 -134 1
-289z m322 -104 c24 -41 31 -127 17 -230 -14 -104 -47 -197 -99 -279 l-39 -62
-7 32 c-11 59 -7 89 14 100 46 25 -1 77 -62 68 -19 -2 -23 -10 -25 -39 -1 -20
-15 -55 -30 -78 l-28 -43 -8 32 c-12 45 9 196 36 268 l22 60 23 -25 c12 -13
22 -22 22 -19 0 4 22 -5 50 -19 27 -14 53 -26 57 -26 14 -1 20 36 9 50 -9 12
-8 13 7 8 9 -4 17 -2 17 4 0 7 -12 9 -29 7 -17 -2 -28 -1 -25 3 2 4 -10 10
-28 14 -35 7 -88 25 -88 31 0 31 72 130 114 155 43 26 59 24 80 -12z m5771
-39 c0 -7 -6 -15 -12 -17 -8 -3 -13 4 -13 17 0 13 5 20 13 18 6 -3 12 -11 12
-18z m-5127 -129 c5 -32 -13 -48 -33 -31 -18 15 -20 46 -2 53 20 9 32 2 35
-22z m-430 -48 c-5 -26 -38 -29 -38 -4 0 15 6 21 21 21 14 0 19 -5 17 -17z
m5360 -55 c-6 -18 -28 -21 -28 -4 0 9 7 16 16 16 9 0 14 -5 12 -12z m-168 -22
c0 -7 -7 -19 -15 -26 -19 -16 -41 1 -32 24 8 20 47 21 47 2z m-5002 -165 l26
-12 -31 -25 c-18 -14 -35 -38 -39 -57 l-7 -32 -18 42 c-12 29 -26 44 -43 49
-33 8 -33 17 -1 38 13 9 32 31 42 49 l17 32 14 -36 c8 -21 25 -42 40 -48z
m5428 -68 c-3 -3 -56 -16 -118 -29 -154 -31 -275 -70 -443 -139 -155 -65 -978
-481 -1071 -542 -22 -14 -24 -14 -24 3 0 11 9 36 20 57 20 38 27 87 12 87 -23
0 -129 -43 -167 -67 -23 -16 -86 -53 -139 -83 -53 -30 -142 -83 -198 -118 -77
-47 -120 -67 -173 -79 -275 -61 -396 -110 -643 -261 -196 -120 -455 -182 -758
-182 -110 0 -313 24 -344 40 -10 6 -45 13 -77 16 -82 8 -286 69 -403 121 -30
14 -76 34 -102 44 -48 19 -161 73 -208 100 -14 8 -26 15 -28 16 -2 1 1 11 8
22 10 20 12 20 43 5 31 -15 31 -15 -8 20 -22 20 -48 38 -57 42 -10 3 -18 12
-18 21 0 20 6 17 178 -81 340 -194 564 -281 832 -321 186 -29 356 -11 554 56
362 123 603 231 1026 459 69 37 203 107 299 154 159 80 175 86 190 72 23 -21
34 -20 56 4 18 20 17 20 -8 20 -15 0 -27 3 -27 8 0 11 373 201 535 272 220 97
391 165 505 200 58 18 128 43 155 55 107 49 369 120 509 139 l91 12 3 -69 c2
-38 1 -72 -2 -74z m-6166 39 c0 -11 -9 -13 -37 -9 -20 4 -41 11 -47 18 -8 8
-5 10 14 5 24 -7 24 -6 -2 9 -47 26 -31 35 22 12 28 -11 50 -27 50 -35z m3158
-44 c17 -17 15 -55 -3 -62 -8 -3 -21 2 -30 10 -18 18 -18 20 -5 45 12 22 21
24 38 7z m-2342 -95 c-11 -11 -19 6 -11 24 8 17 8 17 12 0 3 -10 2 -21 -1 -24z
m5346 -53 c-4 -86 -1 -82 -72 -95 -81 -15 -258 -70 -434 -136 -144 -54 -161
-57 -169 -30 -4 16 -11 18 -43 14 -22 -3 -43 -9 -48 -14 -14 -13 20 -12 45 1
11 6 19 7 19 1 0 -11 -59 -33 -71 -25 -5 3 -9 -3 -9 -13 0 -28 -32 -50 -124
-87 -151 -61 -320 -138 -386 -176 -188 -107 -394 -210 -421 -210 -34 0 -132
31 -122 40 4 4 69 39 143 77 74 39 205 108 290 153 164 88 570 289 780 385
186 85 513 190 605 194 19 1 20 -4 17 -79z m-5936 -9 c5 -5 47 -25 94 -44 175
-72 686 -313 695 -327 7 -11 -16 -60 -27 -60 -5 0 -11 7 -14 15 -4 8 -10 13
-14 10 -5 -3 -11 -1 -15 5 -3 5 -15 10 -26 10 -23 0 -109 56 -109 70 0 6 11 5
26 -1 133 -50 -222 129 -441 223 -170 73 -195 86 -195 98 0 12 13 13 26 1z
m-106 -11 c0 -5 -5 -10 -11 -10 -5 0 -7 5 -4 10 3 6 8 10 11 10 2 0 4 -4 4
-10z m-113 -34 c1 -1 -3 -31 -9 -67 -6 -35 -11 -71 -12 -80 0 -10 -7 -14 -17
-12 -11 3 -19 -2 -22 -14 -5 -16 -5 -15 -4 2 1 11 -1 25 -5 30 -4 6 -9 45 -12
87 l-5 76 42 -10 c23 -5 43 -10 44 -12z m90 -48 c-3 -7 -5 -2 -5 12 0 14 2 19
5 13 2 -7 2 -19 0 -25z m4253 17 c10 -12 10 -18 0 -29 -14 -18 -40 -10 -40 13
0 32 20 40 40 16z m-4272 -176 c-4 -78 -10 -144 -14 -148 -8 -8 2 264 11 279
3 5 7 10 8 10 1 0 -1 -64 -5 -141z m6071 106 c-3 -2 -48 -18 -100 -34 -86 -27
-447 -149 -494 -166 -15 -6 -17 -5 -10 3 11 12 30 19 290 109 185 64 330 104
314 88z m-6354 -45 c0 -7 -6 -15 -12 -17 -8 -3 -13 4 -13 17 0 13 5 20 13 18
6 -3 12 -11 12 -18z m689 -121 c82 -28 167 -59 189 -71 39 -19 41 -19 54 -2
12 17 14 16 38 -7 14 -13 63 -42 108 -64 70 -34 82 -44 85 -67 4 -33 -8 -36
-26 -8 -14 22 -142 90 -170 90 -10 0 -22 4 -28 9 -13 14 -246 96 -384 136
-135 39 -214 71 -206 84 6 9 79 -12 340 -100z m5450 45 c11 -29 6 -44 -14 -44
-21 0 -45 34 -35 50 10 16 42 12 49 -6z m-478 -35 c3 -6 17 -8 29 -5 18 5 23
2 20 -12 -2 -9 -4 -20 -4 -23 -1 -10 -72 -53 -126 -76 -27 -12 -95 -42 -151
-67 -55 -25 -103 -46 -107 -46 -16 0 -205 -95 -250 -126 -27 -19 -54 -34 -60
-34 -6 0 -55 -23 -110 -51 -103 -53 -141 -60 -66 -13 81 51 484 250 593 293
145 58 236 101 236 112 0 5 -7 21 -16 34 -9 14 -12 25 -6 25 6 0 14 -5 18 -11z
m-4270 -116 c8 -55 -8 -94 -71 -167 -24 -29 -83 -121 -131 -206 -47 -85 -92
-161 -98 -169 -6 -8 -33 -54 -61 -102 -49 -86 -178 -310 -218 -377 -10 -18
-21 -31 -24 -28 -6 5 53 112 133 242 35 56 82 137 105 180 23 44 53 93 65 109
12 17 45 77 73 134 50 103 51 105 51 200 0 115 15 154 86 224 49 48 49 48 66
27 9 -11 20 -41 24 -67z m-658 25 c17 -17 15 -65 -4 -72 -26 -10 -54 12 -54
43 0 15 3 31 7 34 10 11 38 8 51 -5z m5595 1 c-12 -12 -93 -32 -100 -25 -5 5
75 34 97 35 10 1 11 -2 3 -10z m-5839 -43 c11 -24 16 -62 16 -126 0 -84 -4
-105 -50 -240 -27 -81 -50 -158 -50 -171 0 -13 -3 -35 -7 -48 -6 -23 -7 -23
-14 -5 -15 37 -9 102 17 190 38 134 64 250 64 292 0 38 -22 83 -32 66 -8 -11
-98 -366 -108 -419 l-7 -40 -12 30 c-35 81 -22 229 29 341 26 57 118 175 131
168 4 -2 14 -19 23 -38z m-217 -28 c-3 -8 -6 -5 -6 6 -1 11 2 17 5 13 3 -3 4
-12 1 -19z m5843 3 c0 -5 -15 -13 -32 -16 -55 -12 -297 -94 -385 -131 -102
-42 -132 -44 -43 -2 79 37 224 90 345 128 102 31 115 34 115 21z m-5212 -45
c3 -23 0 -28 -13 -22 -9 3 -19 6 -21 6 -2 0 -4 12 -4 26 0 37 34 28 38 -10z
m3792 -1 c0 -23 -23 -55 -40 -55 -11 0 -30 33 -30 53 0 16 39 36 58 30 6 -3
12 -16 12 -28z m878 3 c3 -25 -20 -44 -39 -32 -13 8 -11 52 4 57 21 9 32 1 35
-25z m-128 2 c0 -5 -2 -10 -4 -10 -3 0 -8 5 -11 10 -3 6 -1 10 4 10 6 0 11 -4
11 -10z m-4398 -63 c47 -35 92 -112 86 -149 -2 -18 -11 -8 -37 47 -37 78 -51
75 -27 -6 9 -29 16 -69 16 -89 0 -43 -18 -100 -32 -100 -5 0 -21 26 -35 57
-22 48 -27 77 -31 165 -3 72 -1 108 6 108 6 0 30 -15 54 -33z m3557 -8 c13
-17 22 -32 20 -33 -2 -2 -59 -31 -126 -65 -112 -56 -126 -60 -168 -54 -40 5
-44 8 -32 20 14 15 268 163 277 162 3 0 16 -14 29 -30z m-3117 -50 c-25 -58
-89 -127 -124 -133 -7 -1 -24 -8 -37 -15 -19 -11 -22 -11 -15 1 4 7 -3 4 -16
-7 l-23 -20 8 25 c4 14 23 53 42 87 44 80 99 121 165 122 l27 1 -27 -61z m271
-71 c248 -154 421 -219 722 -273 240 -43 391 -81 419 -105 15 -15 -102 -22
-262 -18 -196 6 -326 35 -547 121 -138 53 -414 197 -506 263 l-46 34 14 45 15
44 32 -16 c17 -9 89 -52 159 -95z m-1124 66 c3 -3 -9 -19 -27 -37 l-32 -32 0
44 c0 42 1 43 27 36 16 -4 30 -9 32 -11z m282 -90 c14 -8 11 -23 -11 -46 -20
-21 -28 -44 -12 -34 4 2 9 -5 9 -16 2 -18 -4 -15 -37 17 -30 29 -48 38 -84 42
-37 5 -46 9 -46 25 0 10 -7 32 -15 47 -8 16 -12 31 -9 33 4 5 184 -54 205 -68z
m5355 47 c-3 -4 -27 -14 -53 -20 -106 -27 -161 -43 -223 -66 -93 -33 -110 -38
-110 -26 0 11 148 62 281 95 109 28 112 29 105 17z m-5637 -149 c-18 -31 -53
-86 -77 -122 l-45 -65 8 45 c10 65 46 150 96 227 l44 67 3 -47 c3 -39 -3 -58
-29 -105z m4421 128 c0 -5 -5 -10 -11 -10 -5 0 -7 5 -4 10 3 6 8 10 11 10 2 0
4 -4 4 -10z m10 -30 c0 -5 -7 -10 -16 -10 -8 0 -12 5 -9 10 3 6 10 10 16 10 5
0 9 -4 9 -10z m618 -5 c28 -9 70 -30 93 -48 44 -33 88 -106 89 -145 0 -24 -40
-72 -61 -72 -24 0 -69 62 -69 96 0 19 -3 34 -7 34 -13 0 -39 -20 -28 -21 6 0
1 -4 -10 -9 -29 -13 -82 -12 -104 2 -16 10 -27 4 -78 -40 -53 -46 -65 -52
-105 -52 l-45 0 8 -45 c15 -79 40 -110 118 -147 63 -29 190 -29 247 0 44 22
85 65 110 114 9 16 18 28 21 25 12 -12 -47 -105 -85 -134 -94 -71 -294 -49
-386 43 -16 16 -40 53 -54 83 -20 43 -23 63 -19 103 12 97 78 174 180 209 64
23 118 24 185 4z m-378 -36 c-101 -47 -253 -110 -257 -106 -3 4 148 77 159 77
4 0 35 13 70 30 35 16 70 29 78 29 8 0 -14 -14 -50 -30z m880 -2 c0 -22 -26
-51 -38 -43 -7 4 -12 18 -12 32 0 19 5 24 25 24 14 0 25 -6 25 -13z m-1580
-53 c188 -32 514 -174 650 -283 41 -33 112 -85 158 -116 45 -31 82 -63 82 -70
0 -19 -44 0 -150 65 -180 111 -433 225 -555 251 -55 11 -219 10 -185 -2 19 -6
15 -7 -15 -3 -59 9 -339 -15 -430 -36 -44 -10 -98 -22 -120 -25 -22 -4 -44
-10 -50 -14 -5 -4 -39 -16 -75 -26 -123 -35 -473 -193 -600 -272 -191 -118
-381 -222 -424 -234 -49 -13 -57 -5 -16 16 37 19 118 87 300 250 191 171 251
218 370 289 222 132 459 210 700 230 80 7 263 -3 360 -20z m-3793 -4 c35 -21
66 -74 78 -130 6 -30 5 -33 -7 -19 -7 9 -22 19 -33 23 -18 7 -18 6 2 -16 12
-13 31 -44 42 -69 20 -44 20 -49 5 -84 -17 -42 -25 -38 -42 21 -7 23 -37 79
-67 125 -32 50 -55 95 -55 112 0 15 -4 27 -10 27 -5 0 -10 7 -10 15 0 22 58
19 97 -5z m643 5 c0 -8 -6 -15 -14 -15 -8 0 -18 -5 -22 -12 -5 -8 -2 -9 11 -4
16 6 17 5 3 -16 -20 -30 -155 -99 -193 -98 -55 1 -65 3 -65 15 0 15 76 87 111
106 68 36 169 51 169 24z m4623 -109 c26 -24 28 -56 4 -56 -20 0 -47 33 -47
57 0 29 10 29 43 -1z m-4493 -38 c282 -132 413 -180 612 -227 219 -52 258 -56
508 -55 217 0 244 3 358 28 67 15 129 29 137 33 26 9 16 -12 -13 -29 -16 -10
-62 -47 -103 -84 -41 -37 -109 -93 -152 -126 l-79 -58 -128 0 c-205 0 -371 27
-675 109 -56 15 -73 24 -85 47 -21 36 -34 40 -57 15 -19 -21 -19 -21 -37 34
-22 70 -49 81 -103 39 l-37 -28 -65 23 c-78 27 -244 92 -250 98 -3 2 6 11 20
20 40 28 99 90 99 105 0 18 -70 58 -101 58 l-22 0 23 25 c28 29 30 29 150 -27z
m-890 17 c7 -8 8 -15 2 -15 -5 0 -15 7 -22 15 -7 8 -8 15 -2 15 5 0 15 -7 22
-15z m-288 -234 c51 -86 117 -191 146 -235 33 -50 49 -83 43 -89 -5 -5 -14 -6
-21 -2 -17 10 -89 126 -172 273 -39 70 -89 156 -112 192 -57 88 -64 114 -17
61 22 -25 82 -115 133 -200z m303 127 c49 -43 75 -89 75 -130 -1 -21 -2 -20
-17 7 -18 34 -53 75 -64 75 -4 0 4 -28 17 -61 14 -34 23 -68 20 -75 -3 -8 -1
-14 4 -14 6 0 10 -5 10 -12 0 -23 -41 26 -52 64 -6 21 -15 38 -19 38 -4 0 -10
14 -14 31 -4 17 -13 33 -21 36 -19 7 -19 83 0 83 7 0 35 -19 61 -42z m734 26
c8 -7 -74 -73 -114 -92 -46 -22 -130 -39 -230 -47 l-70 -5 42 39 c79 72 230
125 323 114 25 -3 47 -7 49 -9z m3238 -39 c92 -15 143 -31 143 -46 0 -4 -10
-25 -22 -46 -12 -21 -22 -39 -22 -40 -1 0 -44 5 -96 14 -61 9 -124 12 -178 8
l-83 -6 40 39 c63 61 48 67 -26 10 -88 -66 -105 -73 -259 -107 -96 -22 -186
-52 -345 -116 -118 -48 -290 -118 -384 -155 l-170 -68 -100 7 -100 6 55 36
c70 46 333 196 425 242 228 114 453 183 745 230 64 11 293 6 377 -8z m343 -50
c63 -32 90 -107 54 -151 -8 -10 -12 -13 -9 -5 5 8 -2 7 -21 -5 -19 -13 -47
-19 -90 -19 -50 0 -60 -3 -56 -15 3 -9 -6 -5 -21 9 -96 88 26 247 143 186z
m-3533 -141 c98 -36 182 -69 186 -74 13 -12 -1 -48 -22 -59 -12 -7 -26 -5 -44
4 -16 8 -29 10 -32 4 -4 -5 -14 -9 -23 -9 -12 0 -13 3 -5 8 26 16 -46 60 -166
102 -120 41 -243 45 -334 10 -63 -24 -88 -21 -39 4 23 12 246 69 294 75 3 1
87 -29 185 -65z m293 -137 c-43 -92 -56 -96 -64 -21 -5 41 10 73 52 117 l37
38 3 -33 c2 -22 -8 -58 -28 -101z m-1190 88 c7 -9 10 -18 7 -21 -6 -7 -47 18
-47 28 0 14 27 9 40 -7z m745 -20 c28 -8 63 -18 79 -25 l29 -11 -24 -25 c-79
-85 -246 -114 -444 -78 l-89 17 43 38 c111 99 243 126 406 84z m583 -64 c4
-26 -16 -81 -29 -81 -5 0 -9 5 -9 12 0 6 -3 8 -7 5 -3 -4 -12 1 -20 11 -9 10
-12 11 -7 2 4 -8 4 -12 -1 -8 -4 4 -15 2 -23 -5 -25 -20 2 24 37 62 34 36 54
37 59 2z m3708 10 c-7 -11 -55 -20 -61 -11 -8 12 7 20 37 20 16 0 27 -4 24 -9z
m-989 -7 c-3 -3 -12 -4 -19 -1 -8 3 -5 6 6 6 11 1 17 -2 13 -5z m-3007 -25 c0
-5 -4 -8 -8 -5 -5 3 -9 -1 -9 -9 0 -8 5 -11 10 -8 5 3 13 -1 18 -8 16 -25 10
-28 -20 -11 -16 9 -27 20 -25 24 3 5 -1 8 -8 9 -7 0 -4 4 7 9 28 12 35 12 35
-1z m679 -99 c80 -16 203 -37 274 -47 119 -16 127 -18 101 -30 -18 -7 -79 -12
-158 -13 -142 0 -308 28 -447 75 -40 13 -85 25 -98 25 -17 0 -22 4 -17 16 3 9
6 26 6 38 l0 23 98 -29 c53 -15 162 -42 241 -58z m1681 60 c-20 -13 -53 -13
-45 0 3 6 18 10 33 10 21 0 24 -2 12 -10z m375 -20 c45 -7 41 -8 -45 -10 -52
-1 -106 -6 -120 -11 -16 -6 18 -7 93 -4 130 5 161 -10 40 -19 -43 -4 -103 -9
-133 -12 -39 -3 -51 -2 -40 5 12 9 9 11 -15 12 -30 1 -30 1 -5 10 21 7 20 8
-9 4 -18 -3 -40 -5 -48 -5 -8 0 -11 -4 -8 -10 3 -5 2 -10 -3 -10 -5 0 -26 -11
-46 -25 -20 -13 -69 -34 -109 -46 -144 -43 -685 -241 -1029 -376 -142 -56
-244 -91 -255 -87 -13 4 -15 3 -4 -4 17 -12 11 -16 -74 -40 -110 -32 -525 -59
-525 -34 0 4 27 21 61 37 33 15 77 41 96 57 20 15 37 28 39 28 14 0 339 91
454 126 398 125 454 145 735 269 142 63 217 87 362 115 164 33 472 48 588 30z
m-2791 -31 c32 -28 56 -78 56 -118 0 -8 -20 6 -44 31 -24 26 -56 54 -70 63
-14 10 -26 26 -26 36 0 30 44 24 84 -12z m281 21 c4 -6 11 -7 17 -4 7 4 8 2 4
-5 -4 -6 -11 -9 -16 -6 -4 3 -10 2 -13 -2 -2 -5 -2 -2 0 6 2 8 -2 11 -12 7 -9
-3 -13 -2 -10 4 8 13 22 13 30 0z m-419 -15 c4 -9 1 -28 -5 -43 -6 -15 -12
-40 -14 -57 -5 -37 -14 -37 -122 2 -77 27 -78 28 -50 38 17 5 59 24 95 42 75
36 88 39 96 18z m-532 -57 c69 -16 97 -28 125 -53 20 -18 59 -44 87 -58 27
-14 70 -42 95 -63 l44 -37 3 27 c3 22 7 26 25 20 25 -7 109 -75 115 -92 2 -7
-7 -12 -22 -12 -33 0 -33 -18 -1 -66 50 -73 20 -65 -72 19 -130 119 -232 181
-387 233 -86 28 -131 37 -209 42 -72 4 -100 9 -104 19 -9 23 12 35 74 42 74 9
116 5 227 -21z m3229 15 c-7 -2 -19 -2 -25 0 -7 3 -2 5 12 5 14 0 19 -2 13 -5z
m-78 -13 c-27 -12 -43 -12 -25 0 8 5 22 9 30 9 10 0 8 -3 -5 -9z m-2080 -35
c-52 -44 -109 -73 -153 -78 -40 -5 -43 -4 -40 16 5 32 116 87 176 87 l47 0
-30 -25z m3560 4 c56 -10 220 -67 213 -74 -2 -2 -30 3 -63 11 -259 61 -462 57
-631 -13 -72 -30 -81 -44 -37 -55 16 -4 44 -15 65 -25 l36 -18 -118 0 c-65 0
-122 3 -126 7 -33 34 224 158 370 178 69 10 201 5 291 -11z m-4022 -17 c10
-10 14 -22 10 -26 -5 -4 -1 -6 7 -4 8 2 14 -3 13 -9 -2 -7 3 -12 10 -10 7 1
11 -8 10 -25 -1 -16 3 -28 8 -28 6 0 7 -5 4 -10 -3 -6 -28 11 -56 37 -46 44
-62 73 -38 73 5 0 7 5 4 10 -11 17 11 11 28 -8z m204 -34 c-7 -51 -58 -218
-67 -218 -4 0 2 25 12 56 10 31 21 86 24 123 7 81 11 94 25 85 7 -4 9 -22 6
-46z m2918 9 c87 -23 206 -75 142 -62 -15 3 -48 8 -73 12 -25 3 -40 9 -34 13
7 4 -39 16 -102 26 -138 22 -351 26 -376 7 -9 -7 -24 -12 -32 -12 -10 0 -8 3
5 9 18 8 18 9 2 9 -18 1 -98 -16 -127 -26 -8 -3 -24 -7 -35 -8 -37 -5 -137
-37 -295 -92 -168 -59 -623 -228 -655 -243 -11 -5 -65 -27 -120 -49 -55 -21
-167 -66 -250 -99 -249 -99 -360 -140 -364 -136 -11 10 30 33 114 64 50 18
144 55 210 82 370 152 920 360 1175 444 65 22 266 74 340 88 14 2 106 3 205 1
151 -3 194 -7 270 -28z m-1455 -26 c0 -11 -8 -14 -368 -131 -365 -120 -489
-152 -575 -151 -37 1 -76 5 -85 10 -50 25 -92 40 -92 32 0 -9 -27 -22 -57 -27
-23 -4 -24 29 -2 53 13 12 17 23 11 23 -7 0 -13 -6 -13 -12 -2 -19 -17 73 -18
108 l-1 31 173 6 c94 4 280 18 412 32 307 31 304 31 473 33 79 1 142 -2 142
-7z m1165 -26 c-33 -8 -78 -14 -100 -13 l-40 0 50 13 c28 7 73 13 100 13 l50
0 -60 -13z m-378 -11 c-3 -3 -12 -4 -19 -1 -8 3 -5 6 6 6 11 1 17 -2 13 -5z
m-2478 -59 c43 -49 39 -58 -14 -28 -42 23 -54 41 -38 56 12 12 21 7 52 -28z
m435 -10 c-5 -19 -84 -78 -93 -70 -10 11 26 69 53 86 34 20 48 14 40 -16z
m-163 -12 c-8 -15 -10 -15 -11 -2 0 17 10 32 18 25 2 -3 -1 -13 -7 -23z m2899
17 c10 -7 -18 -10 -89 -10 -144 0 -315 -37 -520 -112 -166 -61 -360 -146 -486
-213 -166 -89 -229 -124 -385 -213 -181 -104 -441 -242 -456 -242 -5 0 50 31
121 69 72 37 146 77 165 88 19 11 91 53 160 93 523 305 925 481 1225 535 84
16 244 19 265 5z m-660 -14 c0 -2 -13 -9 -30 -15 -16 -5 -30 -6 -30 -1 0 7 10
11 53 19 4 0 7 -1 7 -3z m896 -29 c1 -7 5 -21 9 -32 4 -14 2 -12 -9 5 -8 14
-15 31 -16 39 0 16 13 7 16 -12z m224 -25 c18 -14 20 -22 11 -43 -12 -33 -49
-44 -73 -22 -18 16 -25 63 -11 76 12 13 51 7 73 -11z m-295 -27 c0 -11 3 -25
7 -31 4 -6 0 -11 -10 -12 -27 -1 -202 42 -202 50 0 4 33 9 73 11 121 6 132 4
132 -18z m-2899 -49 c-34 -45 -81 -81 -132 -101 l-39 -16 25 20 25 20 -24 9
-24 9 34 25 c45 33 149 80 158 72 2 -2 -8 -19 -23 -38z m-405 1 c34 -18 44
-30 46 -51 2 -26 0 -28 -29 -22 -36 7 -108 62 -108 82 0 21 41 17 91 -9z
m3103 -14 c59 -24 136 -69 136 -78 0 -3 -10 1 -22 9 -13 8 -54 23 -93 34 -38
11 -79 23 -90 27 -13 5 -7 -7 20 -36 81 -88 92 -103 70 -91 -40 21 -145 139
-145 163 0 13 57 -1 124 -28z m-184 18 c0 -4 -50 -20 -111 -35 -61 -14 -137
-37 -168 -50 -74 -32 -189 -76 -198 -76 -42 0 179 90 332 136 115 34 145 40
145 25z m-2297 -98 c11 -10 -24 -29 -97 -52 -99 -31 -136 -26 -108 15 21 31
59 44 128 44 39 0 74 -3 77 -7z m-755 -23 c23 -10 42 -24 42 -31 0 -7 -9 -5
-26 6 -14 9 -42 23 -62 30 -23 9 -29 14 -17 14 11 0 39 -8 63 -19z m476 -22
c-4 -13 -14 -28 -23 -35 -9 -7 -12 -13 -7 -13 5 0 1 -9 -9 -20 -22 -25 -39
-16 -24 13 17 32 53 76 62 76 5 1 5 -9 1 -21z m-296 -36 c6 -18 -15 -14 -22 4
-4 10 -1 14 6 12 6 -2 14 -10 16 -16z m2322 -22 c-14 -11 -72 -45 -130 -76
-58 -31 -125 -69 -149 -85 -24 -17 -45 -28 -48 -25 -8 8 118 88 232 148 61 32
112 58 115 58 3 0 -6 -9 -20 -20z m608 -73 c52 -14 96 -27 98 -30 6 -6 -124
-16 -358 -27 -112 -5 -237 -14 -278 -20 -173 -22 -176 -22 -160 -10 41 31 153
79 215 94 103 23 118 25 260 21 99 -3 152 -9 223 -28z m-2448 -116 c0 -33 -4
-39 -35 -54 l-35 -17 0 26 c0 27 49 94 63 87 4 -2 7 -21 7 -42z m2663 15 c72
-14 129 -38 171 -71 36 -28 9 -27 -81 3 -48 16 -108 33 -133 37 -25 4 -61 16
-80 26 l-35 18 42 1 c23 0 75 -6 116 -14z m-2443 -1 c0 -11 -50 -115 -55 -115
-4 0 -3 9 0 20 5 14 2 20 -10 20 -9 0 -13 5 -10 10 8 13 3 13 -30 0 -48 -18
-23 13 34 42 51 27 71 33 71 23z m2340 -150 c46 -14 97 -31 112 -38 68 -29 3
-39 -102 -15 -80 19 -177 22 -250 8 -208 -38 -349 -60 -388 -59 -42 0 -44 1
-22 10 14 6 94 28 179 50 84 22 162 44 174 51 65 35 166 32 297 -7z m-1940
-145 c-8 -5 -22 -9 -30 -9 -10 0 -8 3 5 9 27 12 43 12 25 0z"/>
<path d="M5218 8203 c7 -3 16 -2 19 1 4 3 -2 6 -13 5 -11 0 -14 -3 -6 -6z"/>
<path d="M5258 8193 c7 -3 16 -2 19 1 4 3 -2 6 -13 5 -11 0 -14 -3 -6 -6z"/>
<path d="M4758 8183 c6 -2 18 -2 25 0 6 3 1 5 -13 5 -14 0 -19 -2 -12 -5z"/>
<path d="M5350 8180 c8 -5 24 -10 34 -10 26 0 18 6 -19 14 -22 5 -26 4 -15 -4z"/>
<path d="M4765 8160 c-3 -5 -2 -10 4 -10 5 0 13 5 16 10 3 6 2 10 -4 10 -5 0
-13 -4 -16 -10z"/>
<path d="M4925 8149 c-52 -12 -69 -18 -63 -24 2 -2 22 0 44 7 21 6 62 14 89
18 48 7 48 8 10 8 -22 0 -58 -4 -80 -9z"/>
<path d="M4635 8110 c-13 -6 -15 -9 -5 -9 8 0 22 4 30 9 18 12 2 12 -25 0z"/>
<path d="M4808 8113 c7 -3 16 -2 19 1 4 3 -2 6 -13 5 -11 0 -14 -3 -6 -6z"/>
<path d="M4456 8095 c-11 -8 -15 -15 -9 -15 6 0 16 7 23 15 16 19 11 19 -14 0z"/>
<path d="M4316 8077 c3 -10 9 -15 12 -12 3 3 0 11 -7 18 -10 9 -11 8 -5 -6z"/>
<path d="M5065 8050 l-60 -7 80 -1 c55 -1 75 1 65 8 -8 5 -17 9 -20 8 -3 -1
-32 -4 -65 -8z"/>
<path d="M4925 8040 c-16 -7 -14 -8 12 -7 17 1 29 5 26 10 -5 9 -12 8 -38 -3z"/>
<path d="M4386 8027 c3 -10 9 -15 12 -12 3 3 0 11 -7 18 -10 9 -11 8 -5 -6z"/>
<path d="M4607 8019 c7 -7 15 -10 18 -7 3 3 -2 9 -12 12 -14 6 -15 5 -6 -5z"/>
<path d="M4988 7993 c6 -2 18 -2 25 0 6 3 1 5 -13 5 -14 0 -19 -2 -12 -5z"/>
<path d="M4738 7974 c-39 -21 -35 -28 5 -8 37 19 44 24 31 24 -5 -1 -21 -8
-36 -16z"/>
<path d="M4808 7943 c7 -3 16 -2 19 1 4 3 -2 6 -13 5 -11 0 -14 -3 -6 -6z"/>
<path d="M3754 7859 c-8 -14 13 -18 30 -6 16 12 16 13 -4 13 -12 0 -23 -4 -26
-7z"/>
<path d="M2985 6094 c-172 -31 -351 -97 -454 -166 -119 -81 -291 -262 -291
-307 0 -18 6 -21 49 -21 72 0 267 35 357 65 91 30 161 65 222 112 24 18 49 30
54 27 6 -4 8 -3 5 3 -8 13 37 56 47 46 4 -5 6 -3 4 2 -1 6 15 35 37 65 47 64
92 148 91 170 -1 20 -27 21 -121 4z m30 -74 c3 -5 4 -14 1 -19 -7 -11 -76 8
-76 21 0 12 68 10 75 -2z m-112 -42 c13 -13 32 -28 43 -35 18 -11 19 -11 0
-19 -24 -9 -42 2 -67 44 -24 37 -11 42 24 10z m-93 -9 c0 -6 14 -29 31 -50 33
-41 26 -54 -8 -16 -20 21 -43 60 -43 71 0 3 5 6 10 6 6 0 10 -5 10 -11z m-90
-110 c-16 -58 -21 -44 -13 37 6 62 7 66 15 36 5 -20 4 -48 -2 -73z m-86 4
c-13 -38 -26 -87 -30 -110 -3 -24 -10 -43 -15 -43 -10 0 -6 22 18 110 14 52
39 110 47 110 2 0 -7 -30 -20 -67z m191 -50 c-28 -21 -166 -86 -172 -79 -5 4
162 91 182 94 6 1 1 -6 -10 -15z"/>
<path d="M7924 7634 c-32 -29 -33 -32 -8 -15 29 19 62 51 52 51 -3 0 -22 -16
-44 -36z"/>
<path d="M7120 6513 c8 -4 21 -13 28 -22 11 -14 11 -13 2 7 -6 12 -18 22 -28
21 -14 0 -14 -2 -2 -6z"/>
<path d="M7075 6370 c-3 -5 -1 -10 4 -10 6 0 11 5 11 10 0 6 -2 10 -4 10 -3 0
-8 -4 -11 -10z"/>
<path d="M7504 6078 l-19 -23 23 19 c21 18 27 26 19 26 -2 0 -12 -10 -23 -22z"/>
<path d="M3580 5425 c0 -19 117 -165 131 -165 14 0 -2 26 -61 100 -48 61 -70
81 -70 65z"/>
<path d="M3740 5157 c0 -26 162 -227 174 -216 7 7 -149 222 -164 227 -6 2 -10
-3 -10 -11z"/>
<path d="M4240 4663 c1 -5 11 -21 24 -37 33 -40 52 -29 20 12 -24 30 -44 42
-44 25z"/>
<path d="M4490 4467 c0 -13 112 -127 124 -127 15 0 1 22 -50 78 -56 62 -74 74
-74 49z"/>
<path d="M4450 4339 c0 -6 14 -22 32 -37 46 -40 172 -131 176 -128 11 11 -23
46 -103 106 -96 72 -105 77 -105 59z"/>
<path d="M7647 5542 c-42 -42 -77 -84 -77 -92 0 -8 38 23 85 70 47 47 85 88
85 92 0 19 -20 3 -93 -70z"/>
<path d="M7388 5358 c-27 -22 -218 -239 -218 -249 0 -5 3 -9 8 -9 13 0 234
250 230 260 -2 7 -9 6 -20 -2z"/>
<path d="M7451 5123 c-31 -38 -16 -42 22 -5 23 24 27 32 15 32 -9 0 -26 -12
-37 -27z"/>
<path d="M7205 4993 c-55 -51 -142 -129 -194 -171 -98 -80 -129 -117 -74 -88
44 22 155 115 258 215 112 110 128 128 118 134 -4 3 -53 -38 -108 -90z"/>
<path d="M6700 4691 c-58 -54 -102 -102 -98 -106 9 -9 80 50 168 139 101 104
46 78 -70 -33z"/>
<path d="M5100 5515 c0 -42 22 -126 32 -123 12 4 12 7 -2 83 -12 64 -30 88
-30 40z"/>
<path d="M5576 5341 c-3 -4 20 -32 51 -62 61 -60 67 -53 13 15 -36 47 -56 61
-64 47z"/>
<path d="M6041 4989 c-78 -89 -92 -109 -71 -109 9 0 162 172 168 190 11 30
-25 -1 -97 -81z"/>
<path d="M2250 5172 c0 -10 6 -30 13 -45 9 -19 17 -25 31 -21 12 4 16 2 11 -5
-9 -16 47 -2 57 13 16 23 7 38 -34 56 -54 25 -78 25 -78 2z"/>
<path d="M7088 4553 c-21 -5 -22 -16 -8 -44 21 -38 79 -12 65 31 -6 19 -21 23
-57 13z"/>
<path d="M7016 4271 c-4 -5 3 -7 14 -4 23 6 26 13 6 13 -8 0 -17 -4 -20 -9z"/>
<path d="M6890 4204 c-14 -7 -45 -23 -70 -34 -25 -12 -64 -31 -86 -43 -23 -12
-47 -23 -55 -25 -8 -2 -27 -10 -43 -18 -16 -8 -35 -14 -43 -14 -7 0 -13 -4
-13 -10 0 -5 -12 -10 -26 -10 -14 0 -23 -4 -19 -10 4 -6 11 -7 17 -4 7 5 9 1
5 -9 -5 -13 4 -11 38 8 24 14 52 25 62 25 10 0 42 15 72 33 29 17 70 42 90 54
20 12 55 31 79 42 42 20 54 32 30 30 -7 -1 -24 -7 -38 -15z"/>
<path d="M6498 4023 c7 -3 16 -2 19 1 4 3 -2 6 -13 5 -11 0 -14 -3 -6 -6z"/>
<path d="M2222 3980 c0 -14 2 -19 5 -12 2 6 2 18 0 25 -3 6 -5 1 -5 -13z"/>
<path d="M3241 4073 c-23 -25 -39 -49 -36 -52 4 -3 9 -1 13 5 26 41 67 82 75
77 6 -3 7 -1 3 5 -10 17 -10 17 -55 -35z"/>
<path d="M2648 4053 c7 -3 16 -2 19 1 4 3 -2 6 -13 5 -11 0 -14 -3 -6 -6z"/>
<path d="M3285 3911 c-3 -5 -2 -12 3 -15 5 -3 9 1 9 9 0 17 -3 19 -12 6z"/>
<path d="M3182 3873 c-6 -2 -9 -9 -6 -15 4 -6 -1 -8 -12 -4 -17 5 -63 -19 -53
-27 11 -9 70 16 79 33 6 11 9 20 8 19 -2 0 -9 -3 -16 -6z"/>
<path d="M4537 3393 l-208 -3 3 -23 c3 -22 4 -22 237 -25 129 -1 238 1 242 5
4 5 3 18 -2 31 -6 16 -15 21 -36 20 -15 -2 -122 -4 -236 -5z"/>
<path d="M6698 2883 c7 -3 16 -2 19 1 4 3 -2 6 -13 5 -11 0 -14 -3 -6 -6z"/>
<path d="M3743 2848 c-18 -11 -33 -24 -33 -29 0 -5 16 1 35 13 19 13 35 26 35
31 0 9 2 9 -37 -15z"/>
<path d="M7150 8317 c-8 -17 -29 -41 -47 -53 l-32 -21 37 -24 c20 -13 43 -37
50 -53 l14 -28 24 40 c13 22 37 45 54 52 l31 13 -31 18 c-17 11 -40 35 -51 54
-12 19 -24 35 -27 35 -4 0 -14 -15 -22 -33z"/>
<path d="M3221 8297 c-2 -38 -34 -88 -72 -110 l-39 -24 37 -24 c22 -14 48 -43
60 -68 18 -36 24 -41 28 -25 14 44 33 70 68 93 l37 24 -28 17 c-39 24 -60 51
-76 96 -8 21 -15 31 -15 21z"/>
<path d="M2478 8290 c-4 -8 -9 -45 -12 -83 -3 -37 -14 -87 -24 -110 -21 -48
-89 -113 -127 -123 -32 -8 -32 -20 0 -28 39 -10 106 -76 128 -125 13 -29 21
-76 24 -143 3 -54 9 -101 13 -103 4 -2 10 39 13 93 3 53 13 117 22 142 18 51
64 104 114 129 l33 18 -46 27 c-75 44 -110 113 -124 246 -5 41 -11 68 -14 60z"/>
<path d="M2940 7989 c-7 -13 -24 -36 -38 -51 -22 -23 -23 -28 -9 -34 9 -3 26
-22 37 -42 l21 -35 19 31 c10 17 28 36 39 42 26 13 27 27 3 34 -10 4 -27 22
-39 43 l-21 36 -12 -24z"/>
<path d="M8255 7427 c-11 -23 -34 -51 -52 -62 -18 -11 -32 -22 -33 -25 0 -3
16 -14 35 -24 21 -12 42 -34 52 -57 18 -40 33 -50 33 -24 0 22 59 84 86 91 33
8 30 16 -13 39 -23 13 -44 35 -57 62 -12 23 -23 42 -26 42 -3 0 -14 -19 -25
-42z"/>
<path d="M2306 7351 l-30 -31 29 -30 29 -30 23 27 c28 35 28 36 0 68 l-22 26
-29 -30z"/>
<path d="M8504 6527 c-6 -20 -23 -41 -46 -56 l-37 -24 32 -21 c18 -12 38 -36
46 -54 8 -17 17 -32 20 -32 3 0 13 15 21 33 8 17 30 42 49 54 l33 23 -26 10
c-14 5 -39 30 -55 55 l-28 45 -9 -33z"/>
<path d="M8757 6210 c-3 -8 -11 -32 -17 -53 -13 -42 -57 -90 -106 -115 l-35
-18 40 -18 c52 -22 98 -78 106 -128 9 -49 21 -49 29 2 7 46 60 111 106 130 17
7 30 15 30 19 -1 3 -20 15 -43 27 -44 21 -83 77 -97 138 -5 20 -9 26 -13 16z"/>
<path d="M8640 5640 c-24 -24 -25 -48 -4 -78 31 -45 114 -18 114 38 0 23 -42
60 -68 60 -12 0 -31 -9 -42 -20z"/>
<path d="M1546 5590 c-9 -17 -22 -30 -29 -30 -6 0 0 -11 15 -24 14 -14 29 -31
32 -38 5 -11 7 -11 12 0 3 7 17 23 30 35 l23 22 -32 32 -33 32 -18 -29z"/>
<path d="M1996 2557 c-11 -47 -70 -120 -125 -155 -50 -32 -53 -36 -36 -46 46
-26 117 -103 141 -152 15 -30 29 -54 33 -54 4 0 15 19 26 42 21 49 83 119 131
149 19 11 34 24 34 28 0 3 -16 15 -36 26 -47 25 -101 86 -124 141 -21 49 -35
56 -44 21z m73 -149 c22 -25 41 -50 41 -55 0 -4 -16 -19 -35 -33 -19 -14 -41
-38 -49 -54 l-14 -29 -15 29 c-9 16 -31 46 -51 67 l-35 38 35 31 c19 17 42 45
51 62 14 28 17 29 23 11 4 -11 26 -41 49 -67z"/>
<path d="M8248 2498 c-26 -56 -69 -97 -122 -118 l-29 -11 40 -20 c54 -27 90
-67 113 -125 15 -40 20 -45 25 -29 30 90 53 119 118 152 l38 19 -49 31 c-54
33 -77 62 -97 119 l-12 37 -25 -55z"/>
<path d="M2456 2312 c-13 -22 -40 -47 -60 -56 l-36 -17 42 -32 c24 -18 53 -50
64 -71 l22 -39 12 24 c18 35 61 79 94 96 l30 16 -37 19 c-21 10 -50 37 -65 58
-15 22 -30 39 -34 40 -4 0 -19 -17 -32 -38z"/>
<path d="M7755 2317 c-18 -28 -63 -66 -98 -81 -8 -4 -5 -10 8 -18 11 -7 41
-34 68 -60 26 -27 49 -48 51 -48 2 0 7 11 10 24 5 22 50 67 92 92 18 11 18 12
-6 22 -28 11 -61 45 -79 80 -15 29 -22 28 -46 -11z"/>
<path d="M5525 1514 c-33 -14 -89 -37 -123 -51 -65 -26 -83 -46 -63 -66 13
-13 64 3 183 56 96 42 112 55 97 73 -15 19 -24 18 -94 -12z"/>
</g>
</svg>
